<?xml version="1.0" encoding="utf-8"?>
<!-- Generator: Adobe Illustrator 16.0.0, SVG Export Plug-In . SVG Version: 6.00 Build 0)  -->
<!DOCTYPE svg PUBLIC "-//W3C//DTD SVG 1.1//EN" "http://www.w3.org/Graphics/SVG/1.1/DTD/svg11.dtd">
<svg version="1.1" id="图层_1" xmlns="http://www.w3.org/2000/svg" xmlns:xlink="http://www.w3.org/1999/xlink" x="0px" y="0px"
	 width="42px" height="27px" viewBox="0 0 42 27" enable-background="new 0 0 42 27" xml:space="preserve">
<g>
	<g>
		<path  d="M32.643,23.75H10.357c-0.515,0-0.857,0.35-0.857,0.875S9.843,25.5,10.357,25.5h22.285
			c0.515,0,0.857-0.35,0.857-0.875S33.157,23.75,32.643,23.75z M30.929,1.5H12.071C10.7,1.5,9.5,2.725,9.5,4.125V18.9
			c0,1.399,1.2,2.625,2.571,2.625h18.857c1.371,0,2.571-1.051,2.571-2.625V4.125C33.5,2.725,32.3,1.5,30.929,1.5z M31.785,18.9
			c0,0.525-0.343,0.875-0.856,0.875H12.071c-0.515,0-0.857-0.35-0.857-0.875V4.125c0-0.525,0.343-0.875,0.857-0.875h18.857
			c0.514,0,0.856,0.35,0.856,0.875V18.9z M16.014,4.65h-2.742c-0.515,0-0.857,0.35-0.857,0.875V8.15
			c0,0.525,0.343,0.875,0.857,0.875c0.514,0,0.857-0.35,0.857-0.7V6.4h1.885c0.344,0,0.857-0.35,0.857-0.875
			S16.357,4.65,16.014,4.65z M16.014,16.8h-1.885v-1.925c0-0.525-0.344-0.875-0.857-0.875c-0.515,0-0.857,0.525-0.857,0.875v2.8
			c0,0.525,0.343,0.875,0.857,0.875h2.742c0.344,0,0.857-0.35,0.857-0.875C16.871,17.15,16.528,16.8,16.014,16.8z M29.729,14
			c-0.515,0-0.857,0.35-0.857,0.875V16.8h-1.886c-0.514,0-0.856,0.351-0.856,0.875c0,0.525,0.343,0.875,0.856,0.875h2.743
			c0.515,0,0.857-0.35,0.857-0.875v-2.8C30.586,14.35,30.243,14,29.729,14z M29.729,4.65h-2.743c-0.514,0-0.856,0.35-0.856,0.875
			S26.472,6.4,26.985,6.4h1.886v1.75c0,0.525,0.343,0.875,0.857,0.875s0.857-0.35,0.857-0.7v-2.8C30.586,5,30.243,4.65,29.729,4.65z
			"/>
	</g>
</g>
</svg>
