<?xml version="1.0" encoding="utf-8"?>
<!-- Generator: Adobe Illustrator 16.0.0, SVG Export Plug-In . SVG Version: 6.00 Build 0)  -->
<!DOCTYPE svg PUBLIC "-//W3C//DTD SVG 1.1//EN" "http://www.w3.org/Graphics/SVG/1.1/DTD/svg11.dtd">
<svg version="1.1" id="图层_1" xmlns="http://www.w3.org/2000/svg" xmlns:xlink="http://www.w3.org/1999/xlink" x="0px" y="0px"
	 width="42px" height="27px" viewBox="0 0 42 27" enable-background="new 0 0 42 27" xml:space="preserve">
<path fill="#67819B" d="M20.084,10.137h0.07c1.629-0.019,2.945-1.353,2.945-2.992V6.146c0-1.654-1.335-2.995-2.98-2.995
	c-1.646,0-2.981,1.341-2.981,2.995v0.999C17.138,8.784,18.455,10.118,20.084,10.137L20.084,10.137z M25.867,10.573
	c1.058,0,1.916-0.839,1.916-1.871V8.075c0-1.034-0.858-1.871-1.916-1.871c-1.059,0-1.917,0.839-1.917,1.871v0.624
	C23.95,9.734,24.809,10.573,25.867,10.573L25.867,10.573z M14.371,10.573c1.058,0,1.916-0.839,1.916-1.871V8.075
	c0-1.034-0.858-1.871-1.916-1.871c-1.058,0-1.916,0.839-1.916,1.871v0.624C12.453,9.734,13.311,10.573,14.371,10.573L14.371,10.573z
	 M11.606,12.479c-0.503,0.263-0.854,0.852-0.854,1.541v3.234c0,0.509,0.287,0.933,0.68,1.073c0.611,0.164,1.236,0.272,1.875,0.332
	v-1.357c0-1.213,0.428-4.741,1.079-5.414h-0.016C13.397,11.883,12.464,12.095,11.606,12.479L11.606,12.479z M28.639,12.48
	c-0.86-0.386-1.794-0.598-2.771-0.598h-0.015c0.653,0.675,1.079,4.204,1.079,5.414v1.36c0.638-0.061,1.266-0.169,1.871-0.333
	c0.393-0.138,0.685-0.564,0.685-1.075v-3.228C29.487,13.332,29.137,12.746,28.639,12.48L28.639,12.48z M24.355,12.404
	c-1.316-0.62-2.744-0.961-4.236-0.961c-1.491,0-2.913,0.341-4.227,0.956c-0.769,0.417-1.307,3.825-1.307,4.927v1.229
	c0,0.815,0.439,1.497,1.039,1.72c1.448,0.402,2.95,0.624,4.497,0.624c1.545,0,3.045-0.217,4.49-0.622
	c0.604-0.22,1.044-0.904,1.044-1.719v-1.23C25.655,16.229,25.119,12.823,24.355,12.404L24.355,12.404z M24.355,12.404"/>
</svg>
