<?xml version="1.0" standalone="no"?><!DOCTYPE svg PUBLIC "-//W3C//DTD SVG 1.1//EN" "http://www.w3.org/Graphics/SVG/1.1/DTD/svg11.dtd"><svg t="1542613711737" class="icon" style="" viewBox="0 0 1024 1024" version="1.1" xmlns="http://www.w3.org/2000/svg" p-id="1003" xmlns:xlink="http://www.w3.org/1999/xlink" width="200" height="200"><defs><style type="text/css"></style></defs><path d="M825 891h-626v-596S262.8 132 512 132s313 163 313 163v596z" fill="#CC4529" p-id="1004"></path><path d="M825 891v-596S761.2 132 512 132v759h313z" fill="#AD2210" p-id="1005"></path><path d="M224.8 294c20.8-37.2 95.8-140 287.4-140 190.2 0 265.4 101.2 287 139-171 1.6-403.2 1.6-574.4 1z" fill="#E95030" p-id="1006"></path><path d="M512 154v140.4c100.8-0.2 201.6-0.6 287.2-1.4C777.6 255.2 702.4 154 512 154c0.2 0 0 0 0 0z" fill="#D83221" p-id="1007"></path><path d="M225 314.2h574v104.2h-574v-104.2z" fill="#FFFFFF" p-id="1008"></path><path d="M512 314.2h287v104.2H512z" fill="#F9F8F7" p-id="1009"></path><path d="M607.4 466.4H251V842.8h522V466.4z" fill="#FFFFFF" p-id="1010"></path><path d="M607.4 466.4H512v376.4h261V466.4z" fill="#F9F8F7" p-id="1011"></path><path d="M617 440.4h-392V867h574V440.4h-182z m-28 26v112.2h-150v-112.2h150z m-150 138.2h150v106.2h-150v-106.2z m150 132.2v106h-150v-106h150z m-338-270.4h160v112.2h-160v-112.2z m0 138.2h160v106.2h-160v-106.2z m0 132.2h160v106h-160v-106z m522 106h-156v-106h156v106z m0-132h-156v-106.2h156v106.2z m-156-132.2v-112.2h156v112.2h-156z" fill="#E95030" p-id="1012"></path><path d="M617 440.4H512v26h77v112.2H512v26h77v106.2H512v26h77v106H512v24.2h287V440.4h-182z m156 402.4h-156v-106h156v106z m0-132h-156v-106.2h156v106.2z m0-244.4v112.2h-156v-112.2h156z" fill="#D83221" p-id="1013"></path><path d="M282.4 346.4h-18.2v-9.4h47.4v9.4h-18.2V400h-11.2v-53.6h0.2zM322.4 337.2h37.8v9.4h-26.6v16h22.6v9.4h-22.6v18.6h27.6v9.4h-38.8v-62.8zM374 337.2h11.2v53.4h26v9.4H374v-62.8zM422.2 337.2H460v9.4h-26.8v16h22.6v9.4h-22.6v18.6h27.6v9.4H422l0.2-62.8zM473.8 337.2h19.8c14 0 24.2 4.8 24.2 19.4 0 14-10.4 20.4-23.8 20.4h-9V400h-11.2v-62.8z m19.2 30.8c9.4 0 13.8-3.8 13.8-11.4 0-7.8-4.8-10.4-14.2-10.4h-7.8V368h8.2zM529.6 337.2h11.2v25.2h25.4v-25.2h11.2V400h-11.2v-28h-25.4v28h-11.2v-62.8zM589.8 368.2c0-20.4 11.4-32.2 27.6-32.2s27.6 12 27.6 32.2c0 20.4-11.4 32.8-27.6 32.8s-27.6-12.4-27.6-32.8z m44 0c0-14-6.4-22.6-16.2-22.6s-16.2 8.6-16.2 22.6 6.4 23.2 16.2 23.2c9.8 0 16.2-9 16.2-23.2zM658 337.2h11.4l19.6 35.2 6.4 13.4h0.4c-0.6-6.4-1.4-14.4-1.4-21.4v-27.2h10.6V400h-11.4l-19.6-35.4-6.4-13.4h-0.4c0.6 6.6 1.4 14.2 1.4 21.2V400H658v-62.8zM721 337.2h37.8v9.4h-26.6v16h22.6v9.4h-22.6v18.6h27.6v9.4h-38.8v-62.8z" fill="#232323" p-id="1014"></path><path d="M529.6 337.2h11.2v25.2h25.4v-25.2h11.2V400h-11.2v-28h-25.4v28h-11.2v-62.8zM589.8 368.2c0-20.4 11.4-32.2 27.6-32.2s27.6 12 27.6 32.2c0 20.4-11.4 32.8-27.6 32.8s-27.6-12.4-27.6-32.8z m44 0c0-14-6.4-22.6-16.2-22.6s-16.2 8.6-16.2 22.6 6.4 23.2 16.2 23.2c9.8 0 16.2-9 16.2-23.2zM658 337.2h11.4l19.6 35.2 6.4 13.4h0.4c-0.6-6.4-1.4-14.4-1.4-21.4v-27.2h10.6V400h-11.4l-19.6-35.4-6.4-13.4h-0.4c0.6 6.6 1.4 14.2 1.4 21.2V400H658v-62.8zM721 337.2h37.8v9.4h-26.6v16h22.6v9.4h-22.6v18.6h27.6v9.4h-38.8v-62.8zM512 342.4v28.6c3.6-3.4 5.6-8 5.6-14.4 0-6.6-2-11.2-5.6-14.2z" fill="#000000" p-id="1015"></path></svg>