<?xml version="1.0" standalone="no"?><!DOCTYPE svg PUBLIC "-//W3C//DTD SVG 1.1//EN" "http://www.w3.org/Graphics/SVG/1.1/DTD/svg11.dtd"><svg t="1542613730035" class="icon" style="" viewBox="0 0 1024 1024" version="1.1" xmlns="http://www.w3.org/2000/svg" p-id="1274" xmlns:xlink="http://www.w3.org/1999/xlink" width="200" height="200"><defs><style type="text/css"></style></defs><path d="M470 100s-150 180.6 0 180.6 0-180.6 0-180.6z" fill="#FBFBB3" p-id="1275"></path><path d="M470 100v180.6c150 0.2 0-180.6 0-180.6z" fill="#FFF59C" p-id="1276"></path><path d="M470 159.6s-92.2 110 0 110 0-110 0-110z" fill="#FFCB79" p-id="1277"></path><path d="M470 159.6s-1 68.8 0 110c92.2 0.2 0-110 0-110z" fill="#FA9705" p-id="1278"></path><path d="M469.6 183.6s-72 86 0 86 0-86 0-86z" fill="#F9CF95" p-id="1279"></path><path d="M469.6 183.6v86c72 0 0-86 0-86z" fill="#F8A22B" p-id="1280"></path><path d="M469.6 213.6s-45 54 0 54 0-54 0-54z" fill="#FBDBB2" p-id="1281"></path><path d="M469.6 213.6v54c45 0.2 0-54 0-54z" fill="#FFD07C" p-id="1282"></path><path d="M470 245.6s-7.2 35 0 35 0-35 0-35z" fill="#59493F" p-id="1283"></path><path d="M440 279.8h58c11 0 20 9 20 20V708c0 11-9 20-20 20h-58c-11 0-20-9-20-20V299.8c0-11.2 9-20 20-20z" fill="#F87E59" p-id="1284"></path><path d="M470 280h30c11 0 20 9 20 20v408c0 11-9 20-20 20h-30V280z" fill="#F5511E" p-id="1285"></path><path d="M318 267.8s-162 200 0 200 0-200 0-200z" fill="#FBFBB3" p-id="1286"></path><path d="M318 267.8s-0.6 134.8 0 200c162 0 0-200 0-200z" fill="#FFF59C" p-id="1287"></path><path d="M318 330.8s-101.2 124 0 124 0-124 0-124z" fill="#FFCB79" p-id="1288"></path><path d="M318 330.8s1.4 76 0 124c101.2 0 0-124 0-124z" fill="#FA9705" p-id="1289"></path><path d="M318.4 360.8s-76.4 94 0 94 0-94 0-94z" fill="#F9CF95" p-id="1290"></path><path d="M318.4 360.8s0.4 55.4 0 94c83.8-2.6 0-94 0-94z" fill="#F8A22B" p-id="1291"></path><path d="M318.4 388.8s-54 66 0 66 0-66 0-66z" fill="#FBDBB2" p-id="1292"></path><path d="M318.4 388.8s0.4 42.6 0 66c53.8 0 0-66 0-66z" fill="#FFD07C" p-id="1293"></path><path d="M318 432.8s-7.6 35 0 35 0-35 0-35z" fill="#59493F" p-id="1294"></path><path d="M260 465.8h116c11 0 20 9 20 20V772c0 11-9 20-20 20h-116c-11 0-20-9-20-20V485.8c0-11 9-20 20-20z" fill="#90D1CD" p-id="1295"></path><path d="M318 466h58c11 0 20 9 20 20v286c0 11-9 20-20 20h-58V466z" fill="#78C7C1" p-id="1296"></path><path d="M630 312.8s-209.4 260.2 0 260.2 0-260.2 0-260.2z" fill="#FBFBB3" p-id="1297"></path><path d="M630 312.8s-1 189.4 0 260.2c209.4-0.2 0-260.2 0-260.2z" fill="#FFF59C" p-id="1298"></path><path d="M630.4 397.8s-130.6 162 0 162 0-162 0-162z" fill="#FFCB79" p-id="1299"></path><path d="M630.4 397.8s-1.4 110 0 162c130.4 0 0-162 0-162z" fill="#FA9705" p-id="1300"></path><path d="M630.4 431.8s-103.6 128 0 128 0-128 0-128z" fill="#F9CF95" p-id="1301"></path><path d="M630.4 431.8s-1.4 65.4 0 128c103.4 0 0-128 0-128z" fill="#F8A22B" p-id="1302"></path><path d="M629.8 477.8s-65.2 82 0 82 0-82 0-82z" fill="#FBDBB2" p-id="1303"></path><path d="M629.8 477.8s-0.4 51.4 0 82c65.2 0 0-82 0-82z" fill="#FFD07C" p-id="1304"></path><path d="M630 525.8s-9.6 47 0 47 0-47 0-47z" fill="#59493F" p-id="1305"></path><path d="M482 571.8h306c11 0 20 9 20 20V886c0 11-9 20-20 20H482c-11 0-20-9-20-20V591.8c0-11 9-20 20-20z" fill="#FFB74B" p-id="1306"></path><path d="M630 571.8h158c11 0 20 9 20 20V886c0 11-9 20-20 20h-158V571.8z" fill="#FFA827" p-id="1307"></path></svg>