<?xml version="1.0" encoding="utf-8"?>
<!-- Generator: Adobe Illustrator 16.0.0, SVG Export Plug-In . SVG Version: 6.00 Build 0)  -->
<!DOCTYPE svg PUBLIC "-//W3C//DTD SVG 1.1//EN" "http://www.w3.org/Graphics/SVG/1.1/DTD/svg11.dtd">
<svg version="1.1" id="图层_1" xmlns="http://www.w3.org/2000/svg" xmlns:xlink="http://www.w3.org/1999/xlink" x="0px" y="0px"
	 width="42px" height="27px" viewBox="0 0 42 27" enable-background="new 0 0 42 27" xml:space="preserve">
<path d="M20.195,25.647c6.341,0,11.5-5.158,11.5-11.499c0-6.341-5.159-11.5-11.5-11.5s-11.5,5.159-11.5,11.5
	C8.695,20.489,13.854,25.647,20.195,25.647L20.195,25.647z M20.195,4.085c5.549,0,10.063,4.514,10.063,10.063
	c0,5.548-4.514,10.062-10.063,10.062s-10.063-4.514-10.063-10.062C10.133,8.6,14.646,4.085,20.195,4.085L20.195,4.085z
	 M20.195,6.569c2.479,0,4.488,1.993,4.488,4.452c0,2.458-2.009,4.451-4.488,4.451s-4.488-1.993-4.488-4.451
	C15.707,8.562,17.716,6.569,20.195,6.569L20.195,6.569z M20.195,14.201c1.77,0,3.206-1.424,3.206-3.18
	c0-1.757-1.436-3.18-3.206-3.18c-1.771,0-3.207,1.424-3.207,3.18C16.989,12.778,18.424,14.201,20.195,14.201L20.195,14.201z
	 M20.195,14.201c3.542,0,6.412,2.847,6.412,6.358h-1.282c0-2.809-2.297-5.087-5.13-5.087s-5.13,2.278-5.13,5.087h-1.283
	C13.782,17.048,16.653,14.201,20.195,14.201L20.195,14.201z M20.195,14.201"/>
</svg>
