<?xml version="1.0" encoding="utf-8"?>
<!-- Generator: Adobe Illustrator 16.0.0, SVG Export Plug-In . SVG Version: 6.00 Build 0)  -->
<!DOCTYPE svg PUBLIC "-//W3C//DTD SVG 1.1//EN" "http://www.w3.org/Graphics/SVG/1.1/DTD/svg11.dtd">
<svg version="1.1" id="图层_1" xmlns="http://www.w3.org/2000/svg" xmlns:xlink="http://www.w3.org/1999/xlink" x="0px" y="0px"
	 width="42px" height="27px" viewBox="0 0 42 27" enable-background="new 0 0 42 27" xml:space="preserve">
<path fill="#899099" d="M32.5,13.5L32.5,13.5L32.5,13.5z M20.434,25.5L20.434,25.5c-6.039,0-10.935-4.867-10.935-10.875
	c0-3.808,1.919-7.234,4.945-9.099C15.27,5.017,16.25,4.984,16.5,5.5c0.437,0.901-0.405,1.609-0.958,2.001
	c-2.25,1.599-3.78,4.164-3.78,7.122c0,4.766,3.882,8.626,8.672,8.626c4.791,0,8.673-3.862,8.673-8.626
	c0-2.915-1.429-5.531-3.684-7.054C24.675,7.063,24.034,6.411,24.5,5.5c0.344-0.673,1.16-0.388,1.921,0.025
	c3.127,1.696,4.947,5.292,4.947,9.1C31.369,20.633,26.473,25.5,20.434,25.5 M20.434,13.875c-0.623,0-1.13-0.503-1.13-1.126V6.093
	V3.818V2.624c-0.001-0.62,0.507-1.125,1.13-1.125c0.625,0,1.131,0.504,1.131,1.125V6v2.25v4.499
	C21.564,13.371,21.059,13.875,20.434,13.875"/>
</svg>
