<?xml version="1.0" standalone="no"?><!DOCTYPE svg PUBLIC "-//W3C//DTD SVG 1.1//EN" "http://www.w3.org/Graphics/SVG/1.1/DTD/svg11.dtd"><svg t="1542613724987" class="icon" style="" viewBox="0 0 1024 1024" version="1.1" xmlns="http://www.w3.org/2000/svg" p-id="1140" xmlns:xlink="http://www.w3.org/1999/xlink" width="200" height="200"><defs><style type="text/css"></style></defs><path d="M259.4 427.4c-25.6-99.8 192.8-116 204.4-41.8 55.8-127.6 234.6-74.2 218.4 18.6 123.2-51 195.2 30.2 148.8 113.8 139.4 16.2 69.8 162.6 30.2 176.4 44.2 134.6-93 153.2-137 125.4-23.2 132.4-181.2 76.6-199.8 7-83.6 144-183.6 32.4-183.6-7-125.4 48.8-183.6-25.6-167.4-81.2-97.6-2.4-113.8-127.6-37.2-164.8-76.6-97.8 48.8-197.6 123.2-146.4z" fill="#8CD5CA" p-id="1141"></path><path d="M831 518c46.4-83.6-25.6-164.8-148.8-113.8 12.8-73.4-96.4-122.2-170.2-76.2v518c4.2-5.8 8.4-12.2 12.4-19.4 18.6 69.6 176.6 125.4 199.8-7 44 27.8 181.2 9.2 137-125.4 39.6-13.6 109.2-160-30.2-176.2z" fill="#71C6B8" p-id="1142"></path><path d="M360 331.2h492.4c11 0 20 9 20 20v45.6c0 11-9 20-20 20H360c-11 0-20-9-20-20v-45.6c0-11 9-20 20-20z" fill="#FFFFFF" p-id="1143"></path><path d="M852.4 331.2H512v85.6h340.4c11 0 20-9 20-20v-45.6c0-11-9-20-20-20z" fill="#F9F6F4" p-id="1144"></path><path d="M809 450.4v-33.4c0-47.2-38.2-85.6-85.6-85.6H352.8c34.8-138 174.8-221.6 312.8-187 137.6 34.6 221.4 174.2 187.2 312-17.8 31.6-31.8 43-43.8-6z" fill="#E95030" p-id="1145"></path><path d="M665.6 144.4c-53-13.2-106.2-9.2-153.6 8.8v178.2h211.4c47.4 0 85.6 38.4 85.6 85.6v33.4c12 49 26 37.6 43.8 6 34.2-137.8-49.6-277.4-187.2-312z" fill="#DD4026" p-id="1146"></path><path d="M834.6 466.6m-51.4 0a51.4 51.4 0 1 0 102.8 0 51.4 51.4 0 1 0-102.8 0Z" fill="#F9F6F4" p-id="1147"></path></svg>